<?xml version="1.0" standalone="no"?><!DOCTYPE svg PUBLIC "-//W3C//DTD SVG 1.1//EN" "http://www.w3.org/Graphics/SVG/1.1/DTD/svg11.dtd"><svg t="1672130080970" class="icon" viewBox="0 0 1024 1024" version="1.1" xmlns="http://www.w3.org/2000/svg" p-id="2382" xmlns:xlink="http://www.w3.org/1999/xlink" width="200" height="200"><path d="M898.2528 266.24l-184.32-184.32c-5.7344-5.7344-13.5168-9.0112-21.7088-9.0112H221.184c-39.3216 0-71.68 32.3584-71.68 71.68v757.76c0 39.3216 32.3584 71.68 71.68 71.68h614.4c39.3216 0 71.68-32.3584 71.68-71.68v-614.4c0-8.192-3.2768-15.9744-9.0112-21.7088z m-52.4288 636.1088c0 5.7344-4.5056 10.24-10.24 10.24H221.184c-5.7344 0-10.24-4.5056-10.24-10.24v-757.76c0-5.7344 4.5056-10.24 10.24-10.24h458.3424l166.2976 166.2976v601.7024z" fill="#231815" p-id="2383"></path><path d="M528.384 253.952c-109.7728 0-199.4752 89.2928-199.4752 199.4752 0 30.72 6.9632 59.8016 19.2512 85.6064l-74.1376 155.648c-4.5056 9.8304-3.6864 21.2992 2.4576 30.3104s16.384 14.336 27.4432 13.5168l77.4144-5.3248 47.104 64.7168c5.7344 8.192 15.1552 12.6976 24.9856 12.6976h2.8672c10.6496-0.8192 20.0704-7.7824 24.9856-17.2032l52.0192-108.9536 52.0192 108.9536c4.5056 9.8304 13.9264 16.384 24.9856 17.2032h2.8672c9.8304 0 18.8416-4.5056 24.9856-12.6976l47.104-64.7168 77.4144 5.3248c11.0592 0.8192 21.2992-4.5056 27.4432-13.5168 6.144-9.0112 6.9632-20.48 2.4576-30.3104L713.1136 528.384c9.4208-23.3472 14.7456-48.3328 14.7456-74.9568 0-110.1824-89.7024-199.4752-199.4752-199.4752z m0 61.44c76.1856 0 138.0352 61.8496 138.0352 138.0352s-61.8496 138.0352-138.0352 138.0352-138.0352-61.8496-138.0352-138.0352S452.1984 315.392 528.384 315.392z m-80.2816 404.2752l-26.624-36.4544c-6.144-8.6016-16.384-13.1072-27.0336-12.6976l-42.1888 2.8672 36.864-77.4144c25.3952 24.9856 57.344 43.008 93.3888 51.2l-34.4064 72.4992z m265.8304-46.2848l-42.1888-2.8672c-10.6496-0.8192-20.48 4.096-27.0336 12.6976l-26.624 36.4544-35.6352-74.5472c35.2256-10.24 66.7648-29.4912 90.9312-55.7056l40.5504 83.968z" fill="#231815" p-id="2384"></path></svg>